<svg xmlns="http://www.w3.org/2000/svg" width="20" height="20" viewBox="0 0 20 20">
  <g id="marks" transform="translate(0.161 -0.024)">
    <path id="Rectangle_5" data-name="Rectangle 5" d="M0,0H7A2,2,0,0,1,9,2V7A2,2,0,0,1,7,9H2A2,2,0,0,1,0,7V0A0,0,0,0,1,0,0Z" transform="translate(10.839 11.024)" fill="#f6f6f6"/>
    <path id="Rectangle_6" data-name="Rectangle 6" d="M2,0H9A0,0,0,0,1,9,0V7A2,2,0,0,1,7,9H2A2,2,0,0,1,0,7V2A2,2,0,0,1,2,0Z" transform="translate(-0.161 11.024)" fill="#f6f6f6"/>
    <path id="Rectangle_7" data-name="Rectangle 7" d="M2,0H7A2,2,0,0,1,9,2V9A0,0,0,0,1,9,9H2A2,2,0,0,1,0,7V2A2,2,0,0,1,2,0Z" transform="translate(-0.161 0.024)" fill="#f6f6f6"/>
    <circle id="Ellipse_13" data-name="Ellipse 13" cx="4.5" cy="4.5" r="4.5" transform="translate(10.839 0.024)" fill="#f6f6f6"/>
  </g>
</svg>
